HIERARCHY
ROOT Hips
{
	OFFSET -0.001795 -0.223333 0.028219
	CHANNELS 6 Xposition Yposition Zposition Zrotation Yrotation Xrotation 
	JOINT LeftUpLeg
	{
		OFFSET 0.069520 -0.091406 -0.006815
		CHANNELS 3 Zrotation Yrotation Xrotation
		JOINT LeftLeg
		{
			OFFSET 0.034277 -0.375199 -0.004496
			CHANNELS 3 Zrotation Yrotation Xrotation
			JOINT LeftFoot
			{
				OFFSET -0.013596 -0.397961 -0.043693
				CHANNELS 3 Zrotation Yrotation Xrotation
				JOINT LeftToe
				{
					OFFSET 0.026358 -0.055791 0.119288
					CHANNELS 3 Zrotation Yrotation Xrotation
					End Site
					{
						OFFSET 0.000000 0.000000 0.000000
					}
				}
			}
		}
	}
	JOINT RightUpLeg
	{
		OFFSET -0.067670 -0.090522 -0.004320
		CHANNELS 3 Zrotation Yrotation Xrotation
		JOINT RightLeg
		{
			OFFSET -0.038290 -0.382569 -0.008850
			CHANNELS 3 Zrotation Yrotation Xrotation
			JOINT RightFoot
			{
				OFFSET 0.015774 -0.398415 -0.042312
				CHANNELS 3 Zrotation Yrotation Xrotation
				JOINT RightToe
				{
					OFFSET -0.025372 -0.048144 0.123348
					CHANNELS 3 Zrotation Yrotation Xrotation
					End Site
					{
						OFFSET 0.000000 0.000000 0.000000
					}
				}
			}
		}
	}
	JOINT Spine
	{
		OFFSET -0.002533 0.108963 -0.026696
		CHANNELS 3 Zrotation Yrotation Xrotation
		JOINT Spine1
		{
			OFFSET 0.005487 0.135180 0.001092
			CHANNELS 3 Zrotation Yrotation Xrotation
			JOINT Spine2
			{
				OFFSET 0.001457 0.052922 0.025425
				CHANNELS 3 Zrotation Yrotation Xrotation
				JOINT Neck
				{
					OFFSET -0.002778 0.213870 -0.042857
					CHANNELS 3 Zrotation Yrotation Xrotation
					JOINT Head
					{
						OFFSET 0.005152 0.064970 0.051349
						CHANNELS 3 Zrotation Yrotation Xrotation
						End Site
						{
							OFFSET 0.000000 0.000000 0.000000
						}
					}
				}
				JOINT LeftShoulder
				{
					OFFSET 0.078845 0.121749 -0.034090
					CHANNELS 3 Zrotation Yrotation Xrotation
					JOINT LeftArm
					{
						OFFSET 0.090977 0.030469 -0.008868
						CHANNELS 3 Zrotation Yrotation Xrotation
						JOINT LeftForeArm
						{
							OFFSET 0.259612 -0.012772 -0.027456
							CHANNELS 3 Zrotation Yrotation Xrotation
							JOINT LeftHand
							{
								OFFSET 0.249234 0.008986 -0.001171
								CHANNELS 3 Zrotation Yrotation Xrotation
								End Site
								{
									OFFSET 0.000000 0.000000 0.000000
								}
							}
						}
					}
				}
				JOINT RightShoulder
				{
					OFFSET -0.081759 0.118833 -0.038615
					CHANNELS 3 Zrotation Yrotation Xrotation
					JOINT RightArm
					{
						OFFSET -0.096012 0.032551 -0.009143
						CHANNELS 3 Zrotation Yrotation Xrotation
						JOINT RightForeArm
						{
							OFFSET -0.253742 -0.013329 -0.021401
							CHANNELS 3 Zrotation Yrotation Xrotation
							JOINT RightHand
							{
								OFFSET -0.255298 0.007772 -0.005559
								CHANNELS 3 Zrotation Yrotation Xrotation
								End Site
								{
									OFFSET 0.000000 0.000000 0.000000
								}
							}
						}
					}
				}
			}
		}
	}
}
MOTION
Frames: 17
Frame Time: 0.050000
-0.022278 0.885879 -0.152376 -7.651107 -0.371590 25.298967 14.256514 1.688545 -49.826498 -9.588203 2.958052 29.862116 7.336313 16.171156 1.149082 0.000000 0.000000 0.000000 -5.965992 3.200283 -49.545149 10.277466 -2.278957 24.068669 -8.869716 -22.652762 12.136593 0.000000 0.000000 0.000000 -8.585019 2.609370 48.658446 5.819522 -0.424485 -25.959308 3.818489 -6.539550 29.302588 -9.605580 4.696601 -42.101116 0.000000 0.000000 0.000000 21.498527 -10.050932 1.610751 -1.035391 -55.021986 -2.196635 27.875092 -20.348970 -3.667412 0.000000 0.000000 0.000000 -22.327930 17.608249 4.646105 17.350137 63.745501 1.687351 -33.491784 23.392435 -5.565454 0.000000 0.000000 0.000000 
-0.033240 0.880612 -0.159077 -7.488700 -0.300815 26.481185 15.226204 2.222230 -51.859183 -9.549705 2.976592 30.196037 7.045078 15.604248 0.663979 0.000000 0.000000 0.000000 -6.076287 3.303128 -52.015515 11.281072 -2.714556 25.601505 -8.882060 -22.854647 10.671657 0.000000 0.000000 0.000000 -8.414375 2.550592 49.220612 5.509803 -0.362319 -25.883834 4.609392 -5.991431 28.687663 -9.790400 4.796570 -41.684527 0.000000 0.000000 0.000000 22.981230 -9.629016 1.534283 2.927395 -55.710454 -3.971359 28.451488 -17.806363 -3.283552 0.000000 0.000000 0.000000 -26.898600 16.854568 4.099228 3.858826 66.137143 -5.743184 -31.171243 15.580740 -3.216347 0.000000 0.000000 0.000000 
-0.045364 0.875990 -0.164198 -7.249351 -0.314699 26.900449 16.115673 2.709650 -53.033326 -9.889036 3.229168 31.475376 7.142606 15.810228 0.410914 0.000000 0.000000 0.000000 -6.352448 3.275753 -53.529935 12.309394 -3.185276 27.069194 -9.048191 -23.248905 10.128750 0.000000 0.000000 0.000000 -8.184605 2.474174 50.250846 4.922916 -0.204448 -26.566509 5.318127 -5.039631 28.629658 -9.199662 4.680133 -41.804625 0.000000 0.000000 0.000000 24.099752 -8.729550 1.450412 4.875250 -56.994127 -5.110077 29.944950 -17.256819 -3.423071 0.000000 0.000000 0.000000 -30.562155 15.689722 3.488930 -5.838598 66.600335 -11.119633 -29.005758 10.345676 -1.792179 0.000000 0.000000 0.000000 
-0.058377 0.871231 -0.167981 -6.832775 0.074841 26.715949 17.027045 3.026261 -53.596826 -10.165943 3.398576 32.546941 6.785050 14.993036 -0.464423 0.000000 0.000000 0.000000 -6.347943 3.193776 -54.342586 12.999584 -3.645422 29.019306 -9.313794 -23.874066 7.929519 0.000000 0.000000 0.000000 -8.111299 2.347589 51.307820 4.914250 -0.192851 -26.626397 6.023307 -3.892871 28.113241 -9.533943 4.948267 -41.302084 0.000000 0.000000 0.000000 24.082115 -8.815722 1.705180 8.156469 -57.866898 -7.130422 30.352864 -15.814922 -3.243668 0.000000 0.000000 0.000000 -33.301015 15.524647 2.944466 -10.679005 64.976445 -12.884380 -27.593119 7.633887 -1.132479 0.000000 0.000000 0.000000 
-0.071873 0.866841 -0.171370 -6.180350 0.264937 26.802736 17.721299 3.307078 -54.278894 -10.596614 3.660941 33.656461 6.755495 14.912666 -0.912750 0.000000 0.000000 0.000000 -6.517611 3.082643 -55.402095 13.524743 -4.033603 30.642035 -9.376652 -24.053995 7.000684 0.000000 0.000000 0.000000 -7.897135 2.176300 51.944415 4.647289 -0.130053 -26.813845 6.754781 -3.119004 28.258151 -9.148546 4.955948 -40.274374 0.000000 0.000000 0.000000 24.183852 -8.417118 1.790805 9.741633 -58.278848 -8.226973 31.750660 -15.727345 -3.450588 0.000000 0.000000 0.000000 -36.193149 15.160321 2.414787 -14.229437 63.282428 -13.926369 -27.343561 6.420305 -0.893770 0.000000 0.000000 0.000000 
-0.085543 0.862996 -0.175196 -5.757490 0.819826 26.493776 18.306555 3.452532 -54.988847 -10.288726 3.595732 35.166031 6.518445 14.384788 -1.137278 0.000000 0.000000 0.000000 -6.041123 3.154861 -56.304094 14.053042 -4.491543 32.491194 -9.505276 -24.329017 5.686199 0.000000 0.000000 0.000000 -7.671889 1.883218 52.509156 4.499851 -0.113150 -26.612182 7.351990 -2.492428 28.185038 -9.311982 5.146443 -39.529986 0.000000 0.000000 0.000000 24.536460 -7.830283 1.803524 11.871223 -59.172291 -9.679930 32.019635 -14.600299 -3.266951 0.000000 0.000000 0.000000 -38.111543 15.147799 1.998026 -15.480140 61.232835 -13.529810 -26.621163 5.651235 -0.726506 0.000000 0.000000 0.000000 
-0.098347 0.859911 -0.179810 -5.290237 1.151033 26.340054 18.615964 3.544547 -55.782086 -10.036917 3.577401 36.772802 6.258953 13.855103 -0.963593 0.000000 0.000000 0.000000 -5.648285 3.226618 -56.687092 14.267510 -4.712261 33.356726 -9.729659 -24.853118 4.764379 0.000000 0.000000 0.000000 -7.282201 1.554521 53.043700 4.054069 0.006114 -27.208159 7.707845 -2.089861 28.760788 -9.419791 5.295086 -38.973124 0.000000 0.000000 0.000000 24.972168 -8.124216 1.899080 13.795447 -59.052711 -10.787222 32.132613 -13.741779 -3.135229 0.000000 0.000000 0.000000 -38.904518 15.541332 1.712567 -16.638587 59.938786 -13.468480 -26.179689 4.588406 -0.501183 0.000000 0.000000 0.000000 
-0.109162 0.857295 -0.184852 -4.767251 2.152663 26.103341 18.809895 3.354792 -56.643383 -9.925714 3.523492 38.312681 5.821074 12.918738 -1.080331 0.000000 0.000000 0.000000 -5.545771 2.960963 -56.950635 14.680278 -5.022598 33.447374 -10.236765 -25.762206 4.854675 0.000000 0.000000 0.000000 -6.694381 0.896725 53.593891 3.718060 0.079252 -27.388789 8.113015 -2.061912 29.175258 -10.280862 5.735634 -38.110183 0.000000 0.000000 0.000000 25.276468 -8.140283 1.920809 16.984676 -58.809218 -12.430692 31.811194 -12.009821 -2.726245 0.000000 0.000000 0.000000 -40.050005 16.419995 1.424398 -16.709154 57.234291 -12.473868 -25.450733 4.092459 -0.404219 0.000000 0.000000 0.000000 
-0.116869 0.855441 -0.189617 -4.437450 2.271726 25.839414 19.025090 3.430585 -56.971834 -10.096351 3.672657 39.383298 5.497768 12.215922 -0.922095 0.000000 0.000000 0.000000 -5.234231 3.062614 -57.339998 14.630382 -5.053517 33.812838 -10.099936 -25.407370 4.930747 0.000000 0.000000 0.000000 -6.168078 0.538377 54.263146 3.259638 0.159413 -27.380049 8.323829 -1.788385 29.592747 -10.513781 5.959085 -37.008707 0.000000 0.000000 0.000000 26.759404 -7.866127 1.825769 19.911333 -58.268224 -13.745347 31.223392 -10.394307 -2.337310 0.000000 0.000000 0.000000 -41.288389 16.219652 1.142227 -18.167811 55.109911 -12.353195 -23.861856 3.151256 -0.217090 0.000000 0.000000 0.000000 
-0.120995 0.854279 -0.193539 -3.929234 2.496970 25.497476 18.795538 3.182739 -56.665610 -9.783443 3.488118 39.600519 4.855062 10.695743 -1.274743 0.000000 0.000000 0.000000 -5.236813 2.947543 -57.065022 14.551672 -5.056995 33.815743 -10.428849 -26.038032 4.845008 0.000000 0.000000 0.000000 -5.798561 0.221394 54.812012 3.356036 0.139867 -27.392916 8.576981 -1.329355 30.032938 -10.972398 6.269444 -36.559051 0.000000 0.000000 0.000000 27.500298 -7.736209 1.828658 23.865173 -58.073341 -15.815094 29.973329 -7.675334 -1.666947 0.000000 0.000000 0.000000 -42.748500 16.338086 0.735044 -18.285333 52.541068 -11.354372 -22.945166 2.600074 -0.107838 0.000000 0.000000 0.000000 
-0.121999 0.854472 -0.196083 -3.635528 2.742909 25.426073 18.403040 2.887246 -56.588732 -9.535480 3.330037 39.718271 4.140971 9.039784 -1.419618 0.000000 0.000000 0.000000 -5.260957 2.850747 -57.225480 14.415824 -5.020007 33.732460 -10.488790 -26.034824 5.408938 0.000000 0.000000 0.000000 -4.978488 -0.367484 55.173337 3.313627 0.147970 -27.380065 8.634605 -1.063180 30.021341 -10.761486 6.307864 -35.361187 0.000000 0.000000 0.000000 28.061898 -7.414323 1.809871 27.076306 -57.979907 -17.451004 28.987346 -6.014234 -1.267486 0.000000 0.000000 0.000000 -43.746258 16.268848 0.546941 -18.624576 50.852657 -10.858292 -21.961570 3.040764 -0.174617 0.000000 0.000000 0.000000 
-0.120884 0.854994 -0.197593 -3.126968 2.836182 25.430745 17.725205 2.466794 -56.111746 -9.298608 3.154156 39.409297 3.989918 8.543629 -1.932412 0.000000 0.000000 0.000000 -5.616089 2.622847 -57.113844 14.276135 -4.960558 33.517890 -10.462330 -25.947798 5.413555 0.000000 0.000000 0.000000 -4.823705 -0.490577 54.614159 3.585053 0.098692 -27.316597 9.040303 -0.573278 30.570567 -10.757234 6.441097 -34.838959 0.000000 0.000000 0.000000 28.849999 -7.014725 1.802740 30.780975 -58.529242 -19.825632 28.204597 -3.385978 -0.709521 0.000000 0.000000 0.000000 -44.591480 15.947175 0.218124 -17.326717 49.954493 -9.824449 -22.163553 3.330906 -0.203200 0.000000 0.000000 0.000000 
-0.118556 0.855973 -0.198064 -2.890648 3.197697 25.563316 17.248619 2.099382 -55.958185 -9.154734 2.991474 38.933761 4.022993 8.627220 -1.981548 0.000000 0.000000 0.000000 -5.878202 2.372720 -56.896546 13.937883 -4.817847 33.105198 -10.363866 -25.643078 5.767957 0.000000 0.000000 0.000000 -4.285231 -0.905753 53.921240 3.937360 0.013697 -26.975054 8.982209 -0.098605 30.108434 -10.129683 6.272334 -34.260445 0.000000 0.000000 0.000000 29.523809 -6.620895 1.883367 33.902516 -59.128892 -21.963718 27.326834 -1.854584 -0.389999 0.000000 0.000000 0.000000 -45.692051 16.059387 0.009024 -16.529541 49.432866 -9.138243 -21.851801 4.043183 -0.295158 0.000000 0.000000 0.000000 
-0.115684 0.856990 -0.197930 -2.469047 3.392187 25.327289 16.676608 1.719701 -55.461521 -9.153963 2.925178 38.658425 3.872039 8.220461 -2.147758 0.000000 0.000000 0.000000 -6.588173 1.947577 -56.249408 13.935234 -4.848204 32.949434 -10.290365 -25.436614 5.765913 0.000000 0.000000 0.000000 -4.082322 -1.083258 53.602463 4.068190 0.002801 -27.115987 9.370190 0.118412 30.268031 -10.337607 6.446106 -33.809862 0.000000 0.000000 0.000000 29.420421 -6.357591 1.894958 36.529522 -59.647137 -23.849984 26.355950 -1.026475 -0.228007 0.000000 0.000000 0.000000 -46.232369 15.942623 -0.186981 -14.934384 49.170257 -8.322823 -22.283816 5.110343 -0.463800 0.000000 0.000000 0.000000 
-0.112675 0.858387 -0.197190 -2.309480 3.758557 25.089847 16.341127 1.412606 -54.824645 -9.329886 2.908369 38.024126 3.762307 8.005795 -2.025719 0.000000 0.000000 0.000000 -7.010054 1.629535 -55.638332 14.110733 -4.959213 32.772570 -10.320370 -25.400319 5.923976 0.000000 0.000000 0.000000 -3.809026 -1.336534 53.258711 4.092168 -0.012368 -26.916296 9.700425 0.597387 29.964271 -10.119094 6.413021 -33.920994 0.000000 0.000000 0.000000 29.251016 -6.201500 2.028695 38.302419 -60.396070 -25.564559 26.302928 -0.534248 -0.141524 0.000000 0.000000 0.000000 -46.522462 16.002634 -0.356311 -13.197167 49.182884 -7.442964 -22.320608 5.737613 -0.541071 0.000000 0.000000 0.000000 
-0.109764 0.859432 -0.196198 -2.230341 3.761942 24.998594 16.244702 1.338045 -54.281236 -9.605685 2.991905 37.419549 3.628854 7.644788 -2.155874 0.000000 0.000000 0.000000 -7.407784 1.443341 -55.055372 14.282897 -5.060238 32.859792 -10.393383 -25.629461 5.366831 0.000000 0.000000 0.000000 -3.958689 -1.237731 52.910616 4.506183 -0.082005 -26.956876 9.748743 1.188180 29.639135 -10.342606 6.633005 -33.104331 0.000000 0.000000 0.000000 28.558307 -6.050347 2.167333 38.975487 -61.285373 -26.807015 26.319684 -0.819492 -0.200251 0.000000 0.000000 0.000000 -46.328942 16.495015 -0.486661 -11.487464 49.488957 -6.655319 -22.416042 6.357255 -0.624778 0.000000 0.000000 0.000000 
-0.107251 0.860997 -0.195144 -2.101294 4.170170 24.917599 15.925281 1.050873 -53.833261 -9.687035 2.935179 36.898210 3.496027 7.228718 -2.489645 0.000000 0.000000 0.000000 -7.549916 1.259592 -54.344272 13.927775 -4.943459 32.664695 -10.454221 -25.736356 5.074660 0.000000 0.000000 0.000000 -3.812834 -1.417427 52.444127 4.354636 -0.063783 -26.725118 9.981341 1.204995 29.271257 -10.235165 6.709819 -31.516881 0.000000 0.000000 0.000000 27.430660 -6.298085 2.273692 38.313865 -62.072603 -27.013789 26.976092 -1.793325 -0.389070 0.000000 0.000000 0.000000 -46.258136 16.653148 -0.487327 -9.825275 49.873699 -6.029956 -22.308724 7.176992 -0.747555 0.000000 0.000000 0.000000 
